HIERARCHY
ROOT hip
{
	OFFSET 0.000000 0.000000 0.000000 
	CHANNELS 6 Xposition Yposition Zposition Xrotation Zrotation Yrotation
	JOINT abdomen
	{
		OFFSET 0.000000 3.402643 0.000000 
		CHANNELS 3 Xrotation Zrotation Yrotation
		JOINT chest
		{
			OFFSET 0.000000 8.438565 -0.680529 
			CHANNELS 3 Xrotation Zrotation Yrotation
			JOINT neck
			{
				OFFSET 0.000000 10.207942 -0.272212 
				CHANNELS 3 Xrotation Zrotation Yrotation
				JOINT head
				{
					OFFSET 0.000000 3.130431 0.000000 
					CHANNELS 3 Xrotation Zrotation Yrotation
					End Site
					{
						OFFSET 0.000000 3.130435 0.000000 
					}
				}
			}
			JOINT lCollar
			{
				OFFSET 3.470700 6.669187 -0.816635 
				CHANNELS 3 Yrotation Zrotation Xrotation
				JOINT lShldr
				{
					OFFSET 3.198488 0.000000 0.000000 
					CHANNELS 3 Zrotation Yrotation Xrotation
					JOINT lForeArm
					{
						OFFSET 10.139888 0.000000 0.000000 
						CHANNELS 3 Yrotation Zrotation Xrotation
						JOINT lHand
						{
							OFFSET 8.370511 0.000000 0.000000 
							CHANNELS 3 Zrotation Yrotation Xrotation
							End Site
							{
								OFFSET 4.083176 0.000000 0.000000 
							}
						}
					}
				}
			}
			JOINT rCollar
			{
				OFFSET -3.470700 6.669187 -0.816635 
				CHANNELS 3 Yrotation Zrotation Xrotation
				JOINT rShldr
				{
					OFFSET -3.198488 0.000000 0.000000 
					CHANNELS 3 Zrotation Yrotation Xrotation
					JOINT rForeArm
					{
						OFFSET -10.139888 0.000000 0.000000 
						CHANNELS 3 Yrotation Zrotation Xrotation
						JOINT rHand
						{
							OFFSET -8.370511 0.000000 0.000000 
							CHANNELS 3 Zrotation Yrotation Xrotation
							End Site
							{
								OFFSET -4.083176 0.000000 0.000000 
							}
						}
					}
				}
			}
		}
	}
	JOINT lThigh
	{
		OFFSET 5.308129 -1.633274 1.361059 
		CHANNELS 3 Xrotation Zrotation Yrotation
		JOINT lShin
		{
			OFFSET -2.041588 -20.007561 0.000000 
			CHANNELS 3 Xrotation Zrotation Yrotation
			JOINT lFoot
			{
				OFFSET 0.000000 -19.190928 -1.224953 
				CHANNELS 3 Xrotation Yrotation Zrotation
				End Site
				{
					OFFSET 0.000000 -2.449906 4.627600 
				}
			}
		}
	}
	JOINT rThigh
	{
		OFFSET -5.308129 -1.633274 1.361059 
		CHANNELS 3 Xrotation Zrotation Yrotation
		JOINT rShin
		{
			OFFSET 2.041588 -20.007561 0.000000 
			CHANNELS 3 Xrotation Zrotation Yrotation
			JOINT rFoot
			{
				OFFSET 0.000000 -19.190928 -1.224953 
				CHANNELS 3 Xrotation Yrotation Zrotation
				End Site
				{
					OFFSET 0.000000 -2.449906 4.627600 
				}
			}
		}
	}
}
MOTION
Frames: 11
Frame Time: 0.016667
4.929142 44.091820 -4.005275 2.894950 -10.992200 8.645740 -17.985001 -1.537190 0.262872 16.109100 -2.492480 0.017841 5.379760 1.193640 -7.806750 6.681950 5.135380 -3.832070 2.000000 -2.000000 0.000000 -61.481602 4.627850 133.772003 28.506201 -0.334990 0.065308 0.045311 0.004980 -131.647995 -2.000000 2.000000 0.000000 83.591904 0.979456 170.559006 -30.176100 0.333038 0.068725 -0.072701 -0.074425 -109.285004 -27.144651 -0.242741 14.314548 38.403740 2.037500 2.959511 -3.321925 9.782565 -1.139820 -11.116846 15.360644 -19.783644 41.820004 -1.803625 -3.222591 10.457195 16.636776 -1.818258 
5.018486 43.943546 -4.448876 3.281930 -10.900500 8.214890 -18.130100 -1.466950 -0.105042 15.991800 -2.472610 -0.154395 3.765100 1.085460 -9.136630 6.055540 5.343910 -4.515530 2.000000 -2.000000 0.000000 -64.573700 5.278530 137.384003 29.492500 -0.333849 0.067366 0.044639 0.001449 -136.404007 -2.000000 2.000000 0.000000 84.314796 1.798780 170.981003 -30.254200 0.332944 0.068886 -0.071922 -0.072919 -109.890999 -27.667103 -0.389778 16.280333 37.795181 2.053296 2.929971 -3.117482 9.731825 -1.283559 -9.962152 16.339582 -18.618067 38.011387 -1.925906 -3.019619 12.513349 16.401962 -2.262280 
5.117208 43.681717 -4.928436 3.746400 -10.661300 7.859970 -18.255199 -1.408820 -0.449873 15.894000 -2.501470 -0.304056 1.951090 0.865201 -10.534400 5.399240 5.542330 -5.217260 2.000000 -2.000000 0.000000 -67.743599 5.509790 141.065002 30.449499 -0.332708 0.069344 0.045035 -0.011340 -140.975006 -2.000000 2.000000 0.000000 84.822899 2.744470 171.647003 -30.342100 0.332838 0.069067 -0.071416 -0.071918 -110.291000 -28.191355 -0.793508 16.790621 37.296181 2.040006 2.907992 -4.215316 8.832419 -1.215297 -8.699537 17.057852 -16.660439 35.112595 -2.024595 -2.836310 4.503988 16.161213 0.124024 
5.206630 43.333717 -5.444046 4.106240 -10.062500 7.717960 -18.311199 -1.415800 -0.857441 15.738000 -2.393860 -0.501557 0.239996 0.665991 -11.826100 4.821180 5.778930 -5.855610 2.000000 -2.000000 0.000000 -70.991096 5.516760 144.725998 31.562799 -0.331340 0.071621 0.046202 -0.022379 -144.938995 -2.000000 2.000000 0.000000 -94.942200 176.115997 -7.266140 -30.361700 0.332814 0.069107 -0.071062 -0.071208 -110.573997 -28.887463 -1.518498 16.031605 37.416161 2.014618 2.935979 -5.517073 7.105562 -1.202665 -7.634981 17.228331 -14.675046 32.829636 -2.118325 -2.670587 -5.745887 14.939657 2.869864 
5.262922 42.885803 -6.006446 4.196830 -9.379530 7.673820 -18.209600 -1.424620 -1.298290 15.552900 -2.208360 -0.715044 -1.432570 0.504846 -13.078300 4.311380 6.014840 -6.462200 2.000000 -2.000000 0.000000 -74.111000 5.143080 148.330002 32.803101 -0.329764 0.074125 0.047385 -0.029583 -147.546997 -2.000000 2.000000 0.000000 -94.843903 174.643997 -6.032170 -30.107700 0.333119 0.068584 -0.071379 -0.071845 -110.320000 -29.664793 -2.096714 15.318840 38.143387 1.983835 2.976917 -5.834107 4.733710 -1.458929 -7.152759 17.032787 -12.484116 31.245018 -2.173635 -2.553717 -8.743801 13.510142 3.431162 
5.318822 42.574974 -6.611712 4.050790 -8.718740 7.724510 -17.970900 -1.466540 -1.688450 15.308900 -2.110270 -0.909871 -2.922510 0.367262 -14.390000 3.899350 6.230590 -7.091570 2.000000 -2.000000 0.000000 -76.927696 4.310750 151.964005 33.994499 -0.328199 0.076499 0.047738 -0.031409 -148.210999 -2.000000 2.000000 0.000000 -94.745598 172.936996 -5.089420 -29.551100 0.333780 0.067431 -0.073045 -0.075078 -109.021004 -30.369303 -2.437564 15.013861 39.137474 1.922527 3.049511 -5.224026 2.081852 -1.789231 -6.887251 16.786383 -11.278515 30.566637 -2.189211 -2.513705 -12.074896 11.116429 3.608618 
5.384764 42.370880 -7.248636 3.993330 -7.930160 7.885570 -17.858601 -1.570320 -2.076980 14.693800 -1.962350 -1.117020 -3.976250 1.080710 -15.683200 3.762690 6.787450 -7.694840 2.000000 -2.000000 0.000000 -79.499901 3.488880 155.794006 35.224998 -0.326532 0.078915 0.047163 -0.028373 -147.106995 -2.000000 2.000000 0.000000 -94.745003 171.404999 -4.421480 -28.955400 0.334475 0.066191 -0.076137 -0.080649 -106.746002 -31.438387 -2.716548 15.444495 40.788334 1.853998 3.160049 -3.776019 -0.365046 -2.066690 -6.827400 16.384823 -10.427659 29.839420 -2.201412 -2.473092 -14.460001 8.085691 3.163573 
5.452897 42.263111 -7.889829 4.226570 -6.515590 8.142360 -17.922100 -1.854320 -2.445570 13.825600 -1.551740 -1.340390 -4.923140 2.450430 -16.941900 3.744280 7.646850 -8.238410 2.000000 -2.000000 0.000000 -81.720596 2.912750 160.227997 36.865601 -0.324228 0.082080 0.046323 -0.023218 -145.242004 -2.000000 2.000000 0.000000 -95.154503 170.384003 -2.963810 -28.633101 0.334845 0.065517 -0.078359 -0.074589 -105.203003 -32.604134 -3.510424 16.469194 42.204887 1.754321 3.252606 -1.294840 -2.868214 -2.152866 -7.415017 15.185995 -9.681878 29.837023 -2.225730 -2.459803 -16.196674 4.947143 2.264860 
5.514998 42.175411 -8.503060 4.974960 -8.367250 8.433630 -18.109400 -1.308310 -2.795680 13.315000 -2.189440 -1.382220 -6.481930 3.074030 -18.143999 3.409270 7.656950 -8.761210 2.000000 -2.000000 0.000000 -83.306198 2.533780 165.345993 39.228901 -0.320753 0.086520 0.045814 -0.019424 -143.875000 -2.000000 2.000000 0.000000 -95.642303 169.537003 -1.809340 -28.681999 0.334789 0.065619 -0.079919 -0.086830 -104.157997 -35.260204 -1.300161 15.156680 44.373383 1.685060 3.371766 1.062201 -6.248734 -1.952169 -8.696937 17.133768 -9.611506 28.582249 -2.099694 -2.435786 -15.658209 3.037224 1.601020 
5.569269 42.212315 -9.046025 5.507640 -9.011630 8.773360 -18.142599 -1.167730 -3.088150 13.020000 -2.526840 -1.472770 -7.903580 1.390840 -19.016399 2.542170 7.656630 -9.277410 2.000000 -2.000000 0.000000 -84.246399 2.419270 170.677994 42.217201 -0.316102 0.091923 0.045575 -0.017359 -143.132996 -2.000000 2.000000 0.000000 -96.218102 168.914993 -0.489411 -29.053101 0.334362 0.066395 -0.079964 -0.086899 -104.128998 -37.113277 -0.259247 13.448986 45.953312 1.610135 3.443447 5.554655 -10.802269 -0.913600 -9.589205 17.626574 -9.751782 27.442884 -2.005213 -2.419313 -15.338192 2.312612 1.274465 
5.595994 42.399693 -9.521992 5.864820 -9.083870 9.148340 -17.816900 -1.044910 -3.260830 13.088400 -2.527230 -1.544140 -9.020920 4.081750 -20.228201 2.847100 8.311100 -9.680100 2.000000 -2.000000 0.000000 95.215103 178.427002 -3.831620 45.322701 -0.310976 0.097273 0.045254 -0.014093 -141.960999 -2.000000 2.000000 0.000000 -97.155098 167.852005 0.314033 -29.531601 0.333803 0.067391 -0.079433 -0.086069 -104.480003 -38.478405 0.338686 11.338698 47.376907 1.539969 3.528358 13.250731 -17.128632 2.201683 -10.130822 17.469027 -10.033197 26.504288 -1.964416 -2.382541 -15.413172 2.688819 1.392622 
